Coordinates
version=1
nRows=11
nColumns=40
inDegrees=yes

Units are S.I. units (second, meters, Newtons, ...)
Angles are in degrees.

endheader
time	pelvis_tilt	pelvis_list	pelvis_rotation	pelvis_tx	pelvis_ty	pelvis_tz	hip_flexion_r	hip_adduction_r	hip_rotation_r	knee_angle_r	knee_angle_r_beta	ankle_angle_r	subtalar_angle_r	mtp_angle_r	hip_flexion_l	hip_adduction_l	hip_rotation_l	knee_angle_l	knee_angle_l_beta	ankle_angle_l	subtalar_angle_l	mtp_angle_l	lumbar_extension	lumbar_bending	lumbar_rotation	arm_flex_r	arm_add_r	arm_rot_r	elbow_flex_r	pro_sup_r	wrist_flex_r	wrist_dev_r	arm_flex_l	arm_add_l	arm_rot_l	elbow_flex_l	pro_sup_l	wrist_flex_l	wrist_dev_l
     35.11500000	     -3.33631695	     -5.33367249	     -0.19906647	      0.95998061	      0.92405614	      0.47320975	     19.38896394	      2.73868961	    -12.96227419	     20.98565805	     20.98565805	      7.36129016	     -2.75710580	     -3.69359452	      5.73522303	    -10.47238456	     -6.43764206	     40.19098473	     40.19098473	     12.26827224	    -14.73284313	     -9.03065565	     -7.87758198	      8.57704049	      2.78805327	     -2.05347528	    -11.13635378	    -10.38412359	     23.81789609	     46.68426167	      0.00000000	      0.00000000	     16.27006531	    -10.14708019	     -8.75178996	     56.05824911	     46.87761247	      0.00000000	      0.00000000
     35.12714286	     -3.14583893	     -5.32647557	      0.17948246	      0.96006244	      0.92493686	      0.47517568	     18.53508001	      2.72974605	    -13.63489604	     20.82513892	     20.82513892	      7.89448605	     -1.98455027	     -3.93787358	      7.49966185	    -10.85076727	     -5.57247952	     44.03716371	     44.03716371	     10.70982436	    -15.94528374	     -7.92323764	     -7.91462587	      8.56693088	      2.76192095	     -0.65134129	    -11.25460585	    -10.09164933	     25.15230206	     46.61367057	      0.00000000	      0.00000000	     15.80975670	     -9.74130818	     -8.05164440	     52.85464492	     46.78040370	      0.00000000	      0.00000000
     35.13928571	     -3.02139154	     -5.38290996	      0.55218304	      0.95992775	      0.92563486	      0.47709884	     17.72132276	      2.81686743	    -14.28170780	     20.56681086	     20.56681086	      8.35007188	     -1.28317990	     -4.06098747	      9.48742218	    -11.26394925	     -4.69435853	     47.97360833	     47.97360833	      9.87226015	    -16.56139446	     -5.19779236	     -7.91492807	      8.60430632	      3.04785281	      0.53604184	    -11.47650253	     -9.70444565	     26.78666130	     46.51811937	      0.00000000	      0.00000000	     15.47298318	     -9.21026389	     -7.17546452	     49.64742404	     46.66758569	      0.00000000	      0.00000000
     35.15142857	     -2.82970400	     -5.57069899	      0.90613402	      0.95959186	      0.92624808	      0.47910007	     16.85252459	      3.11755275	    -14.72881751	     20.28027387	     20.28027387	      8.71707371	     -0.98912640	     -4.13587939	     11.36303879	    -11.88758597	     -4.03294513	     51.51800449	     51.51800449	      8.34360458	    -17.32665877	     -4.52177740	     -8.09349147	      8.74044133	      3.27885159	      2.17828670	    -11.70293708	     -9.68729446	     27.68362660	     46.49235926	      0.00000000	      0.00000000	     14.40057374	     -8.68726189	     -6.84992303	     48.56164647	     46.61549052	      0.00000000	      0.00000000
     35.16357143	     -2.79276771	     -5.53608591	      1.31621401	      0.95900167	      0.92668170	      0.48062442	     16.16790732	      3.04065606	    -15.57511160	     20.06654578	     20.06654578	      9.23443486	      0.10132094	     -4.23889890	     13.65379298	    -11.96810909	     -3.00452427	     55.25859468	     55.25859468	      9.36050405	    -17.32721790	      2.43305118	     -7.97308779	      8.67492690	      3.66209655	      3.14270830	    -12.09001800	     -9.04392511	     29.90917717	     46.34772934	      0.00000000	      0.00000000	     14.59843207	     -8.18015962	     -5.53392483	     43.80009542	     46.44596095	      0.00000000	      0.00000000
     35.17571429	     -2.70674386	     -5.73582577	      1.69432462	      0.95827164	      0.92707611	      0.48241610	     15.40119742	      3.37731478	    -15.97688391	     19.67740857	     19.67740857	      9.53598641	      0.34510885	     -4.23232931	     15.65553149	    -12.50910966	     -2.37673825	     58.12925093	     58.12925093	      8.40803050	    -17.81285260	      3.25854116	     -8.01314241	      8.79815801	      3.57421591	      4.94732349	    -12.28505507	     -9.04875316	     31.10748121	     46.31077462	      0.00000000	      0.00000000	     13.34097259	     -7.92523914	     -5.19247040	     42.50111391	     46.38553358	      0.00000000	      0.00000000
     35.18785714	     -2.61111281	     -5.73192067	      2.04198554	      0.95728731	      0.92756766	      0.48386564	     14.68672140	      3.42353248	    -16.52994855	     19.42172694	     19.42172694	      9.94398724	      0.96752992	     -4.23795758	     17.70957194	    -12.62489609	     -1.68435073	     60.79905895	     60.79905895	      9.23142642	    -17.94246801	      8.21194582	     -8.09591196	      8.74026129	      3.94636531	      6.25824167	    -12.74144078	     -8.49438653	     33.21559566	     46.18608629	      0.00000000	      0.00000000	     13.15762621	     -7.51255521	     -4.03802852	     38.89228760	     46.23124719	      0.00000000	      0.00000000
     35.20000000	     -2.48715974	     -5.86508446	      2.34557647	      0.95619310	      0.92803774	      0.48550762	     13.94528556	      3.71577740	    -16.77420612	     19.09990360	     19.09990360	     10.21773635	      1.08514640	     -4.23650756	     19.52733253	    -13.03570303	     -1.26696704	     62.68227492	     62.68227492	      8.72924352	    -18.27464859	      8.44321323	     -8.24790469	      8.76455856	      4.29437316	      8.13091947	    -13.13497081	     -8.54943418	     34.20942014	     46.16273118	      0.00000000	      0.00000000	     11.97477939	     -7.13146987	     -3.80993001	     38.00054890	     46.18354680	      0.00000000	      0.00000000
     35.21214286	     -2.48555531	     -5.98423238	      2.74142014	      0.95489407	      0.92847791	      0.48692160	     13.22141269	      4.00819686	    -17.10975169	     18.51271024	     18.51271024	     10.45077278	      1.27822663	     -4.18586320	     21.48959539	    -13.31340929	     -0.75797421	     64.10319615	     64.10319615	      8.65750979	    -18.46896327	      9.13567135	     -8.24727829	      8.79533991	      4.00695778	     10.13196693	    -13.21661696	     -8.54109149	     35.62192931	     46.11764396	      0.00000000	      0.00000000	     10.70301576	     -7.09667455	     -3.45440754	     36.33338089	     46.11588663	      0.00000000	      0.00000000
     35.22428571	     -2.43382464	     -5.90082754	      3.05309462	      0.95342194	      0.92913907	      0.48809881	     12.49847343	      4.06728878	    -17.32431257	     18.03170926	     18.03170926	     10.63447914	      1.48619478	     -4.29767263	     23.32259214	    -13.20788899	     -0.29336141	     65.09496406	     65.09496406	      9.71859933	    -18.50308666	     12.43200264	     -8.34696728	      8.61119023	      4.49130786	     11.47658092	    -13.82179763	     -7.83401434	     37.90413624	     45.98414996	      0.00000000	      0.00000000	     10.58452912	     -6.76682826	     -2.23375004	     32.61249475	     45.94653455	      0.00000000	      0.00000000
     35.23642857	     -2.39647912	     -5.86359943	      3.37880392	      0.95190067	      0.92983454	      0.48924381	     11.72526760	      4.23238600	    -17.42705962	     17.38646458	     17.38646458	     10.78119759	      1.50458736	     -4.23197784	     24.96386911	    -13.20357947	     -0.00313411	     65.30938960	     65.30938960	      9.85119267	    -18.57504636	     12.58776687	     -8.46027412	      8.45579182	      4.43245952	     13.50830199	    -14.01832661	     -7.85882340	     39.37383516	     45.93922920	      0.00000000	      0.00000000	      9.29087622	     -6.69438408	     -1.94014562	     31.48232423	     45.88396684	      0.00000000	      0.00000000
